<?xml version="1.0" encoding="UTF-8"?>
<svg id="Layer_1" data-name="Layer 1" xmlns="http://www.w3.org/2000/svg" viewBox="0 0 1145.83 459.25">
  <defs>
    <style>
      .cls-1 {
        fill: #fff;
      }

      .cls-2 {
        font-family: Inter-Regular, Inter;
        font-size: 18.02px;
        font-variation-settings: 'wght' 400, 'slnt' 0;
      }

      .cls-2, .cls-3 {
        fill: #231f20;
      }

      .cls-4 {
        fill: #374252;
      }

      .cls-5 {
        letter-spacing: 0em;
      }

      .cls-6 {
        letter-spacing: -.02em;
      }

      .cls-7 {
        letter-spacing: -.02em;
      }

      .cls-3 {
        font-family: Inter-Bold, Inter;
        font-size: 178.03px;
        font-variation-settings: 'wght' 700, 'slnt' 0;
        font-weight: 700;
      }

      .cls-8 {
        letter-spacing: -.02em;
      }

      .cls-9 {
        letter-spacing: 0em;
      }

      .cls-10 {
        letter-spacing: -.02em;
      }

      .cls-11 {
        letter-spacing: -.02em;
      }

      .cls-12 {
        fill: #f89521;
      }

      .cls-13 {
        letter-spacing: .02em;
      }

      .cls-14 {
        letter-spacing: -.07em;
      }
    </style>
  </defs>
  <g>
    <circle class="cls-4" cx="229.62" cy="229.62" r="229.62"/>
    <g>
      <path class="cls-1" d="M229.4,375.8c-19.79,0-39.58-.18-59.37,.07-12.01,.15-21.82-4.25-29.41-13.27-25.06-29.78-33.91-64.07-26.53-102.12,6.64-34.21,26.01-59.93,55.59-78.02,3.44-2.1,4.87-4.56,4.83-8.61-.17-15.98-.18-31.97,0-47.95,.05-4.06-1.14-5.5-5.36-6.26-10.4-1.86-14.26-8.91-13.01-21.97,.9-9.39,6.14-14.2,16.32-14.23,38.31-.1,76.63-.11,114.94,0,9.91,.03,14.7,5.21,14.91,15.2,.33,15.44,.16,15.79-15.07,21.47-2.8,1.05-3.11,2.97-3.11,5.34,0,16.74,.04,33.49-.02,50.23-.01,3.62,2.18,5.3,4.93,6.97,33.45,20.37,54.05,49.83,58.34,88.77,3.87,35.12-6.66,66.73-30.53,93.16-6.78,7.51-16.05,11.27-26.55,11.22-20.3-.08-40.6-.02-60.9-.02h0Zm-79.33-101.85c-2.21,4-3.67,8.26-3.11,12.86,1.85,15.39,6.94,29.81,14.84,43,2.52,4.22,4.76,9.65,12.25,9.57,37.06-.42,74.13-.23,111.2-.18,2.95,0,5.38-.46,7.37-2.94,12.1-15.06,19.72-31.72,18.72-51.52,.7-11.86-1.56-23-6.67-33.86-10.35-22.03-29.32-34.42-49.58-45.34-4.67-2.51-6.58-5.13-6.5-10.5,.29-22.08-.15-44.16,.28-66.23,.14-7.22-2.31-9.41-9.21-8.89-6.81,.52-13.72,.49-20.54,0-6.17-.45-8.36,1.35-8.23,7.9,.4,21.56-.07,43.14,.29,64.71,.11,6.28-1.15,10.18-7.44,12.92-6.43,2.8-12.23,7.15-18.1,11.11-18.94,12.8-33.15,28.94-36.46,52.62-.25,1.79-1.01,3.47,.91,4.75h0Z"/>
      <path class="cls-12" d="M150.07,273.95c12.23-3.87,24.04-8.96,36.87-10.97,22.39-3.51,43.87-1.11,64.09,9.27,16.23,8.33,33.72,11.37,51.46,13.77,3.1,.42,5.92-.72,8.85-1.27,1,19.8-6.63,36.46-18.72,51.52-1.99,2.48-4.42,2.94-7.37,2.94-37.07-.05-74.14-.24-111.2,.18-7.49,.09-9.73-5.35-12.25-9.57-7.89-13.2-12.99-27.61-14.84-43-.55-4.61,.9-8.86,3.11-12.86h0Z"/>
    </g>
  </g>
  <g>
    <text class="cls-3" transform="translate(528.75 278.05)"><tspan x="0" y="0">Elixir</tspan></text>
    <text class="cls-2" transform="translate(540 308.61)"><tspan x="0" y="0">a beautiful p</tspan><tspan class="cls-8" x="105.65" y="0">r</tspan><tspan class="cls-10" x="112.05" y="0">o</tspan><tspan x="122.39" y="0">xy made using </tspan><tspan class="cls-14" x="250.54" y="0">T</tspan><tspan class="cls-9" x="260.77" y="0">ailwind CSS, Ultr</tspan><tspan class="cls-7" x="402.28" y="0">a</tspan><tspan class="cls-5" x="412.08" y="0">violet and ba</tspan><tspan class="cls-11" x="521.83" y="0">r</tspan><tspan class="cls-5" x="528.23" y="0">e-se</tspan><tspan class="cls-13" x="566.92" y="0">r</tspan><tspan class="cls-6" x="573.94" y="0">v</tspan><tspan x="583.61" y="0">er!</tspan></text>
  </g>
</svg>