<?xml version="1.0" encoding="UTF-8"?>
<svg id="Layer_1" data-name="Layer 1" xmlns="http://www.w3.org/2000/svg" viewBox="0 0 1280 640">
  <defs>
    <style>
      .cls-1 {
        fill: #fff;
      }

      .cls-2 {
        letter-spacing: -.02em;
      }

      .cls-3 {
        letter-spacing: -.02em;
      }

      .cls-4 {
        font-family: Inter-Bold, Inter;
        font-size: 150.02px;
        font-variation-settings: 'wght' 700, 'slnt' 0;
        font-weight: 700;
      }

      .cls-4, .cls-5 {
        fill: #231f20;
      }

      .cls-6 {
        fill: #374252;
      }

      .cls-7 {
        letter-spacing: -.02em;
      }

      .cls-8 {
        letter-spacing: 0em;
      }

      .cls-9 {
        letter-spacing: -.02em;
      }

      .cls-10 {
        fill: #f89521;
      }

      .cls-11 {
        letter-spacing: 0em;
      }

      .cls-12 {
        letter-spacing: .02em;
      }

      .cls-13 {
        letter-spacing: -.02em;
      }

      .cls-14 {
        letter-spacing: -.07em;
      }

      .cls-5 {
        font-family: Inter-Regular, Inter;
        font-size: 32.2px;
        font-variation-settings: 'wght' 400, 'slnt' 0;
      }
    </style>
  </defs>
  <rect class="cls-1" width="1280" height="640"/>
  <g>
    <g>
      <circle class="cls-6" cx="374.82" cy="320" r="193.49"/>
      <g>
        <path class="cls-1" d="M374.64,443.17c-16.67,0-33.35-.15-50.03,.06-10.12,.13-18.39-3.58-24.78-11.18-21.11-25.1-28.57-53.99-22.35-86.05,5.59-28.83,21.91-50.5,46.84-65.74,2.89-1.77,4.11-3.85,4.07-7.25-.15-13.47-.15-26.94,0-40.4,.04-3.42-.96-4.64-4.52-5.27-8.76-1.57-12.02-7.51-10.96-18.51,.76-7.91,5.17-11.97,13.75-11.99,32.28-.09,64.57-.1,96.85,0,8.35,.03,12.39,4.39,12.57,12.81,.27,13.01,.13,13.3-12.7,18.09-2.36,.88-2.62,2.5-2.62,4.5,0,14.11,.03,28.22-.02,42.33-.01,3.05,1.84,4.46,4.16,5.87,28.19,17.17,45.54,41.99,49.16,74.8,3.26,29.6-5.61,56.23-25.72,78.5-5.72,6.33-13.52,9.49-22.37,9.45-17.1-.07-34.21-.02-51.31-.02h0Zm-66.85-85.82c-1.87,3.37-3.09,6.96-2.62,10.84,1.56,12.97,5.85,25.11,12.5,36.23,2.12,3.55,4.01,8.13,10.32,8.06,31.23-.36,62.47-.19,93.7-.15,2.48,0,4.53-.39,6.21-2.48,10.2-12.69,16.62-26.72,15.78-43.41,.59-10-1.32-19.38-5.62-28.53-8.72-18.56-24.7-29-41.78-38.2-3.93-2.12-5.54-4.33-5.48-8.85,.25-18.6-.13-37.21,.24-55.81,.12-6.09-1.95-7.93-7.76-7.49-5.74,.44-11.56,.41-17.31,0-5.2-.38-7.04,1.14-6.94,6.66,.34,18.17-.06,36.35,.25,54.52,.09,5.29-.97,8.58-6.27,10.89-5.42,2.36-10.31,6.02-15.25,9.36-15.96,10.79-27.93,24.38-30.73,44.34-.21,1.51-.85,2.92,.77,4.01h0Z"/>
        <path class="cls-10" d="M307.79,357.35c10.3-3.26,20.25-7.55,31.07-9.24,18.87-2.96,36.97-.94,54,7.81,13.67,7.02,28.41,9.58,43.36,11.61,2.61,.36,4.99-.61,7.46-1.07,.84,16.69-5.58,30.72-15.78,43.41-1.68,2.09-3.73,2.48-6.21,2.48-31.23-.04-62.47-.21-93.7,.15-6.31,.07-8.2-4.51-10.32-8.06-6.65-11.12-10.95-23.27-12.5-36.23-.46-3.88,.76-7.46,2.62-10.84h0Z"/>
      </g>
    </g>
    <g>
      <text class="cls-4" transform="translate(626.88 308.11)"><tspan x="0" y="0">Elixir</tspan></text>
      <text class="cls-5" transform="translate(636.36 353.85)"><tspan x="0" y="0">a beautiful p</tspan><tspan class="cls-7" x="188.82" y="0">r</tspan><tspan class="cls-3" x="200.26" y="0">o</tspan><tspan x="218.74" y="0">xy made</tspan><tspan x="0" y="38.64">using </tspan><tspan class="cls-14" x="90.71" y="38.64">T</tspan><tspan class="cls-11" x="109" y="38.64">ailwind CSS, Ultr</tspan><tspan class="cls-9" x="361.91" y="38.64">a</tspan><tspan class="cls-8" x="379.42" y="38.64">violet</tspan><tspan x="0" y="77.29">and ba</tspan><tspan class="cls-13" x="104.2" y="77.29">r</tspan><tspan x="115.63" y="77.29">e-se</tspan><tspan class="cls-12" x="184.79" y="77.29">r</tspan><tspan class="cls-2" x="197.33" y="77.29">v</tspan><tspan x="214.62" y="77.29">er!</tspan></text>
    </g>
  </g>
</svg>