<?xml version="1.0" encoding="UTF-8"?>
<svg id="Layer_1" data-name="Layer 1" xmlns="http://www.w3.org/2000/svg" viewBox="0 0 1000 1000">
  <defs>
    <style>
      .cls-1 {
        fill: #364151;
      }

      .cls-2 {
        fill: #fff;
      }

      .cls-3 {
        fill: #f7941d;
      }
    </style>
  </defs>
  <circle class="cls-1" cx="499.47" cy="500" r="500"/>
  <g>
    <path class="cls-2" d="M498.99,818.3c-43.09,0-86.19-.39-129.28,.15-26.16,.33-47.52-9.25-64.04-28.89-54.56-64.85-73.83-139.52-57.76-222.36,14.45-74.5,56.63-130.49,121.05-169.89,7.48-4.58,10.61-9.94,10.52-18.74-.38-34.8-.39-69.61,0-104.41,.1-8.83-2.49-11.98-11.68-13.63-22.64-4.05-31.06-19.4-28.32-47.83,1.97-20.45,13.37-30.92,35.53-30.98,83.42-.22,166.85-.25,250.27,.02,21.58,.07,32.01,11.35,32.47,33.09,.71,33.63,.34,34.38-32.82,46.75-6.1,2.28-6.78,6.47-6.78,11.63,0,36.46,.08,72.92-.05,109.38-.03,7.89,4.75,11.53,10.74,15.18,72.84,44.36,117.69,108.5,127.03,193.29,8.42,76.48-14.5,145.31-66.47,202.86-14.77,16.36-34.95,24.53-57.81,24.43-44.2-.17-88.4-.05-132.6-.05Zm-172.74-221.78c-4.82,8.72-7.99,17.98-6.78,28.01,4.02,33.51,15.12,64.9,32.31,93.63,5.49,9.18,10.37,21.02,26.67,20.84,80.7-.92,161.42-.49,242.14-.39,6.42,0,11.71-1,16.05-6.4,26.35-32.8,42.94-69.06,40.77-112.19,1.52-25.83-3.4-50.08-14.52-73.73-22.54-47.96-63.84-74.94-107.96-98.72-10.16-5.47-14.32-11.18-14.16-22.87,.64-48.07-.33-96.16,.61-144.21,.31-15.73-5.03-20.5-20.06-19.35-14.83,1.13-29.88,1.07-44.73,0-13.44-.97-18.2,2.94-17.93,17.21,.88,46.95-.16,93.94,.64,140.9,.23,13.67-2.5,22.17-16.21,28.14-14,6.1-26.63,15.56-39.42,24.2-41.25,27.87-72.18,63.01-79.4,114.58-.55,3.89-2.19,7.55,1.99,10.35Z"/>
    <path class="cls-3" d="M326.25,596.52c26.62-8.42,52.34-19.51,80.28-23.89,48.75-7.64,95.53-2.42,139.55,20.18,35.33,18.14,73.42,24.75,112.05,29.99,6.75,.92,12.89-1.57,19.27-2.77,2.17,43.12-14.43,79.39-40.77,112.19-4.34,5.4-9.63,6.4-16.05,6.4-80.71-.1-161.43-.53-242.14,.39-16.3,.19-21.18-11.66-26.67-20.84-17.19-28.74-28.29-60.12-32.31-93.63-1.2-10.03,1.96-19.29,6.78-28.01Z"/>
  </g>
</svg>
